<svg width="1232" height="144" fill="none" xmlns="http://www.w3.org/2000/svg"><path d="M153 2.4h1v-1h-1v1zm0 139.6v1h1v-1h-1zm-28 0h-1v1h1v-1zm0-90.8h1l-1.925-.38.925.38zM87.6 142v1h.67l.255-.619L87.6 142zm-21.2 0l-.924.383.256.617h.668v-1zM28.8 51.2l.924-.383-1.924.383h1zm0 90.8v1h1v-1h-1zm-28 0h-1v1h1v-1zM.8 2.4v-1h-1v1h1zm31.8 0l.92-.393-.26-.607h-.66v1zM77 106.2l-.92.393.92 2.15.92-2.15-.92-.393zM121.4 2.4v-1h-.66l-.259.607.919.393zm30.6 0V142h2V2.4h-2zm1 138.6h-28v2h28v-2zm-27 1V51.2h-2V142h2zm-1.925-91.18l-37.4 90.799 1.85.762 37.4-90.8-1.85-.762zM87.6 141H66.4v2h21.2v-2zm-20.276.617l-37.6-90.8-1.848.766 37.6 90.8 1.848-.766zM27.8 51.2V142h2V51.2h-2zm1 89.8H.8v2h28v-2zm-27 1V2.4h-2V142h2zM.8 3.4h31.8v-2H.8v2zm30.88-.607l44.4 103.8 1.84-.786-44.4-103.8-1.84.786zm46.24 103.8l44.399-103.8-1.838-.786-44.4 103.8 1.838.786zM121.4 3.4H153v-2h-31.6v2zm170.283-1l.888.46.757-1.46h-1.645v1zm-47.2 91l-.888-.46-.112.216v.244h1zm0 48.6v1h1v-1h-1zm-28 0h-1v1h1v-1zm0-48.6h1v-.245l-.113-.217-.887.462zm-47.4-91v-1h-1.649l.762 1.462.887-.462zm31.6 0l.905-.426-.27-.574h-.635v1zm30 63.8l-.905.425.908 1.931.903-1.933-.906-.423zm29.8-63.8v-1h-.637l-.269.577.906.423zm30.312-.46l-47.2 91 1.776.92 47.2-91-1.776-.92zM243.483 93.4V142h2V93.4h-2zm1 47.6h-28v2h28v-2zm-27 1V93.4h-2V142h2zm-.113-49.062l-47.4-91-1.774.924 47.4 91 1.774-.924zM169.083 3.4h31.6v-2h-31.6v2zm30.695-.574l30 63.8 1.81-.852-30-63.8-1.81.852zm31.811 63.797l29.8-63.8-1.812-.846-29.8 63.8 1.812.846zM260.483 3.4h31.2v-2h-31.2v2zm191.404 63.2l-.875-.483-.004.007-.004.007.883.469zm-16.599 15.8l-.466-.885-.007.004.473.881zm-51.8 6v-1h-1v1h1zm0 53.6v1h1v-1h-1zm-28 0h-1v1h1v-1zm0-139.6v-1h-1v1h1zm79 5.6l-.441.898.441-.898zm17 15.4l-.869.496.004.007.004.006.861-.509zm-28.6 37.2l.68.733.007-.007.007-.006-.694-.72zm-39.4-35.4v-1h-1v1h1zm0 40.6h-1v1h1v-1zm72.8-20.2c0 7.298-1.758 14.132-5.276 20.517l1.751.966c3.682-6.682 5.525-13.848 5.525-21.483h-2zm-5.284 20.531c-3.358 6.329-8.731 11.462-16.182 15.384l.931 1.77c7.749-4.078 13.442-9.478 17.018-16.216l-1.767-.938zM434.815 81.52c-7.279 3.9-16.57 5.881-27.927 5.881v2c11.575 0 21.218-2.018 28.872-6.119l-.945-1.763zm-27.927 5.88h-23.4v2h23.4v-2zm-24.4 1V142h2V88.4h-2zm1 52.6h-28v2h28v-2zm-27 1V2.4h-2V142h2zm-1-138.6h51.4v-2h-51.4v2zm51.4 0c10.687 0 19.728 1.848 27.159 5.498l.881-1.796C427.159 3.286 417.8 1.4 406.888 1.4v2zm27.159 5.498c7.444 3.656 12.95 8.66 16.572 14.998l1.737-.992c-3.845-6.728-9.672-11.992-17.428-15.802l-.881 1.796zm16.58 15.011c3.767 6.366 5.661 13.587 5.661 21.691h2c0-8.43-1.974-16.008-5.94-22.71l-1.721 1.02zM405.688 66.8c7.858 0 13.886-1.758 17.88-5.467l-1.361-1.466c-3.472 3.225-8.911 4.933-16.519 4.933v2zm17.894-5.48c3.972-3.831 5.906-9.116 5.906-15.72h-2c0 6.196-1.801 10.911-5.295 14.28l1.389 1.44zm5.906-15.72c0-6.985-1.957-12.398-6.034-16.045-4.055-3.629-10.038-5.355-17.766-5.355v2c7.471 0 12.888 1.674 16.433 4.845 3.523 3.153 5.367 7.94 5.367 14.555h2zm-23.8-21.4h-22.2v2h22.2v-2zm-23.2 1v40.6h2V25.2h-2zm1 41.6h22.2v-2h-22.2v2zM549.167 142l-.87.493.287.507h.583v-1zm-30.8-54.4l.87-.493-.287-.507h-.583v1zm-13.2 0v-1h-1v1h1zm0 54.4v1h1v-1h-1zm-28 0h-1v1h1v-1zm0-139.6v-1h-1v1h1zm80 5.8l-.453.891.012.007.441-.898zm17 15.4l-.868.496.006.01.006.011.856-.517zm-2.2 46.6l.809.588.005-.007-.814-.581zm-23.8 15.2l-.257-.966-1.274.338.67 1.136.861-.508zm33.4 56.6v1h1.751l-.89-1.508-.861.508zm-76.4-75.4h-1v1h1v-1zm40.4-5.4l.694.72.007-.007.006-.006-.707-.707zm0-30.2l-.694.72.007.006.007.007.68-.733zm-40.4-5.4v-1h-1v1h1zm44.87 115.907l-30.8-54.4-1.74.986 30.8 54.4 1.74-.986zM518.367 86.6h-13.2v2h13.2v-2zm-14.2 1V142h2V87.6h-2zm1 53.4h-28v2h28v-2zm-27 1V2.4h-2V142h2zm-1-138.6h52.4v-2h-52.4v2zm52.4 0c10.684 0 19.72 1.913 27.147 5.691l.907-1.782C549.848 3.354 540.484 1.4 529.567 1.4v2zm27.159 5.698c7.444 3.656 12.951 8.66 16.573 14.998l1.736-.992c-3.844-6.728-9.671-11.992-17.427-15.802l-.882 1.796zm16.585 15.02c3.766 6.232 5.656 13.251 5.656 21.082h2c0-8.169-1.976-15.55-5.944-22.117l-1.712 1.034zm5.656 21.082c0 8.992-2.602 17.122-7.814 24.419l1.628 1.162c5.455-7.637 8.186-16.173 8.186-25.581h-2zm-7.809 24.412c-5.172 7.112-12.89 12.068-23.248 14.822l.514 1.932c10.709-2.846 18.858-8.023 24.352-15.578l-1.618-1.176zm-23.852 16.296l33.4 56.6 1.722-1.016-33.4-56.6-1.722 1.016zM581.567 141h-32.4v2h32.4v-2zm-76.4-73.4h23.4v-2h-23.4v2zm23.4 0c7.74 0 13.703-1.832 17.694-5.68l-1.388-1.44c-3.476 3.352-8.845 5.12-16.306 5.12v2zm17.707-5.693c3.964-3.963 5.893-9.375 5.893-16.107h-2c0 6.335-1.804 11.19-5.307 14.693l1.414 1.414zm5.893-16.107c0-6.602-1.933-11.83-5.919-15.533l-1.361 1.466c3.48 3.231 5.28 7.869 5.28 14.067h2zm-5.906-15.52c-3.991-3.848-9.954-5.68-17.694-5.68v2c7.461 0 12.83 1.768 16.306 5.12l1.388-1.44zm-17.694-5.68h-23.4v2h23.4v-2zm-24.4 1v41h2v-41h-2zm129.925 108.6l.489-.872-.489.872zm-26-25.4l-.863.505.003.005.86-.51zm0-73.6l.86.51.003-.005-.863-.505zm26-25.6l-.489-.872.489.872zm72 0l-.494.87.005.002.489-.872zm25.8 25.6l-.867.497.003.007.004.006.86-.51zm0 73.6l-.863-.505-.002.003.865.502zm-25.8 25.4l-.489-.872.489.872zm-13.8-21.4l.504.864.007-.004.006-.004-.517-.856zm15-16.4l.891.454-.891-.454zm0-49l-.891.454.004.007.887-.461zm-15-16.2l-.504.864.504-.864zm-44.6 0l-.496-.868-.008.004.504.864zm-15 16.2l.888.46.003-.006-.891-.454zm0 49l.891-.454-.891.454zm15 16.4l-.517.856.01.006.011.006.496-.868zm22.4 29.6c-12.903 0-24.733-3.026-35.511-9.072l-.978 1.744c11.089 6.221 23.259 9.328 36.489 9.328v-2zm-35.511-9.072c-10.779-6.047-19.318-14.389-25.629-25.038l-1.72 1.02c6.489 10.951 15.284 19.543 26.371 25.762l.978-1.744zm-25.626-25.033c-6.303-10.767-9.463-22.924-9.463-36.495h-2c0 13.895 3.24 26.406 9.737 37.505l1.726-1.01zM599.492 71.8c0-13.436 3.16-25.457 9.46-36.09l-1.72-1.02c-6.499 10.967-9.74 23.346-9.74 37.11h2zm9.463-36.095c6.311-10.781 14.85-19.187 25.626-25.233l-.978-1.744c-11.09 6.221-19.885 14.882-26.374 25.967l1.726 1.01zm25.626-25.233C645.359 4.426 657.189 1.4 670.092 1.4v-2c-13.23 0-25.4 3.107-36.489 9.328l.978 1.744zM670.092 1.4c13.038 0 24.866 3.027 35.506 9.07l.988-1.74C695.626 2.506 683.454-.6 670.092-.6v2zm35.511 9.072c10.775 6.045 19.244 14.448 25.422 25.225l1.735-.994c-6.356-11.09-15.087-19.753-26.179-25.975l-.978 1.744zm25.429 25.238c6.301 10.633 9.46 22.654 9.46 36.09h2c0-13.764-3.24-26.143-9.74-37.11l-1.72 1.02zm9.46 36.09c0 13.571-3.16 25.728-9.463 36.495l1.726 1.01c6.497-11.1 9.737-23.61 9.737-37.505h-2zm-9.465 36.498c-6.176 10.645-14.646 18.984-25.424 25.03l.978 1.744c11.089-6.22 19.819-14.815 26.176-25.77l-1.73-1.004zm-25.424 25.03c-10.778 6.046-22.608 9.072-35.511 9.072v2c13.231 0 25.4-3.107 36.489-9.328l-.978-1.744zM670.092 119.4c8.553 0 16.132-1.902 22.704-5.736l-1.008-1.728c-6.227 3.633-13.449 5.464-21.696 5.464v2zm22.717-5.744c6.57-3.969 11.695-9.58 15.374-16.802l-1.782-.908c-3.521 6.911-8.395 12.234-14.626 15.998l1.034 1.712zm15.374-16.802c3.683-7.23 5.509-15.59 5.509-25.054h-2c0 9.203-1.774 17.243-5.291 24.146l1.782.908zm5.509-25.054c0-9.463-1.825-17.76-5.512-24.86l-1.775.92c3.513 6.767 5.287 14.736 5.287 23.94h2zm-5.509-24.854c-3.68-7.225-8.809-12.773-15.387-16.61l-1.008 1.728c6.223 3.63 11.094 8.882 14.613 15.79l1.782-.908zm-15.387-16.61c-6.572-3.834-14.151-5.736-22.704-5.736v2c8.247 0 15.469 1.831 21.696 5.464l1.008-1.728zM670.092 24.6c-8.553 0-16.195 1.902-22.896 5.732l.992 1.736c6.366-3.637 13.658-5.468 21.904-5.468v-2zm-22.904 5.736c-6.577 3.837-11.706 9.385-15.387 16.61l1.782.908c3.52-6.908 8.391-12.16 14.613-15.79l-1.008-1.728zM631.805 46.94c-3.687 7.101-5.513 15.398-5.513 24.861h2c0-9.204 1.775-17.173 5.288-23.94l-1.775-.92zm-5.513 24.86c0 9.463 1.826 17.824 5.509 25.054l1.782-.908c-3.517-6.903-5.291-14.943-5.291-24.146h-2zm5.509 25.054c3.679 7.222 8.805 12.833 15.374 16.802l1.034-1.712c-6.23-3.764-11.105-9.087-14.626-15.998l-1.782.908zm15.395 16.814c6.701 3.83 14.343 5.732 22.896 5.732v-2c-8.246 0-15.538-1.831-21.904-5.468l-.992 1.736zM843.723 2.4h1v-1h-1v1zm-11.8 129.8l.689.725.006-.006-.695-.719zm-64-.4l-.689.725.006.005.683-.73zm-12.2-32.4v-1h-1v1h1zm28 0l1-.022-.022-.978h-.978v1zm4.2 14l-.78.625.007.009.008.009.765-.643zm23.6.2l.769.64-.769-.64zm4-111.2v-1h-1v1h1zm27.2 0v98h2v-98h-2zm0 98c0 13.399-3.868 23.713-11.494 31.081l1.389 1.438c8.107-7.832 12.105-18.718 12.105-32.519h-2zm-11.488 31.075c-7.642 7.253-17.909 10.925-30.912 10.925v2c13.398 0 24.198-3.795 32.289-11.475l-1.377-1.45zM800.323 142.4c-13.127 0-23.667-3.801-31.716-11.33l-1.367 1.46c8.485 7.937 19.545 11.87 33.083 11.87v-2zm-31.711-11.325c-7.889-7.501-11.889-18.013-11.889-31.675h-2c0 14.072 4.135 25.16 12.511 33.125l1.378-1.45zM755.723 100.4h28v-2h-28v2zm27.001-.978c.136 6.133 1.569 11.041 4.419 14.603l1.561-1.25c-2.483-3.104-3.85-7.53-3.981-13.397l-1.999.044zm4.434 14.621c3.027 3.604 7.333 5.357 12.765 5.357v-2c-4.968 0-8.661-1.58-11.234-4.643l-1.531 1.286zm12.765 5.357c5.293 0 9.471-1.683 12.369-5.16l-1.537-1.28c-2.436 2.923-5.991 4.44-10.832 4.44v2zm12.369-5.16c2.861-3.433 4.231-8.087 4.231-13.84h-2c0 5.447-1.296 9.593-3.768 12.56l1.537 1.28zm4.231-13.84v-98h-2v98h2zm-1-97h28.2v-2h-28.2v2zM904.386 25v-1h-1v1h1zm0 35h-1v1h1v-1zm47 0h1v-1h-1v1zm0 22.2v1h1v-1h-1zm-47 0v-1h-1v1h1zm0 37h-1v1h1v-1zm53 0h1v-1h-1v1zm0 22.8v1h1v-1h-1zm-81 0h-1v1h1v-1zm0-139.8v-1h-1v1h1zm81 0h1v-1h-1v1zm0 22.8v1h1v-1h-1zm-54 0v35h2V25h-2zm1 36h47v-2h-47v2zm46-1v22.2h2V60h-2zm1 21.2h-47v2h47v-2zm-48 1v37h2v-37h-2zm1 38h53v-2h-53v2zm52-1V142h2v-22.8h-2zm1 21.8h-81v2h81v-2zm-80 1V2.2h-2V142h2zm-1-138.8h81v-2h-81v2zm80-1V25h2V2.2h-2zm1 21.8h-53v2h53v-2zm27.845 11.2l-.867-.497-.002.003.869.494zm25.399-25.4l.49.872.01-.002-.5-.87zm101.8 36v1h1.38l-.43-1.313-.95.313zm-32.2 0l-.9.433.27.567h.63v-1zm-13.6-15l-.5.864.01.005.49-.869zm-41.8.8l.51.86.01-.004-.52-.856zm-14.8 16l-.89-.46v.012l.89.447zm0 48.8l-.9.44.01.01v.01l.89-.46zm14.8 16.2l-.52.851.01.007.01.006.5-.864zm41.8.6l.5.865.01-.004-.51-.861zm13.6-15.2v-1h-.63l-.27.567.9.433zm32.2 0l.95.31.43-1.31h-1.38v1zm-24.6 33.4l.56.828v-.002l-.56-.826zm-77.2 2.8l-.5.867.01.004.01.003.48-.874zm-25.399-25.4l-.869.494.004.008.865-.502zm-8.2-36.8c0-13.579 3.031-25.672 9.07-36.306l-1.739-.988c-6.228 10.966-9.331 23.406-9.331 37.294h2zm9.068-36.303c6.18-10.781 14.521-19.117 25.021-25.025l-.98-1.744c-10.828 6.092-19.423 14.69-25.776 25.775l1.735.994zm25.031-25.027c10.63-6.042 22.53-9.07 35.7-9.07v-2c-13.49 0-25.73 3.105-36.69 9.33l.99 1.74zm35.7-9.07c15.42 0 28.89 3.95 40.44 11.826l1.12-1.652C1076.48 3.649 1062.61-.4 1046.83-.4v2zm40.44 11.826c11.54 7.87 19.61 18.752 24.21 32.688l1.9-.627c-4.73-14.332-13.06-25.583-24.99-33.713l-1.12 1.652zm25.16 31.374h-32.2v2h32.2v-2zm-31.3.567c-3.28-6.832-7.94-11.993-14-15.436l-.99 1.738c5.67 3.223 10.07 8.062 13.19 14.564l1.8-.866zm-14-15.431c-5.9-3.435-12.75-5.136-20.5-5.136v2c7.45 0 13.94 1.632 19.5 4.864l1-1.729zm-20.5-5.136c-8.3 0-15.75 1.975-22.32 5.944l1.04 1.712c6.23-3.764 13.31-5.656 21.28-5.656v-2zm-22.31 5.94c-6.44 3.836-11.5 9.313-15.18 16.4l1.78.92c3.52-6.78 8.33-11.97 14.42-15.6l-1.02-1.72zm-15.18 16.413c-3.55 7.098-5.31 15.39-5.31 24.847h2c0-9.21 1.71-17.184 5.1-23.953l-1.79-.894zM1003.83 72c0 9.327 1.76 17.615 5.3 24.84l1.8-.88c-3.39-6.909-5.1-14.887-5.1-23.96h-2zm5.31 24.86c3.68 7.084 8.74 12.624 15.17 16.591l1.05-1.702c-6.11-3.766-10.92-9.027-14.44-15.81l-1.78.922zm15.19 16.604c6.56 3.831 14.01 5.736 22.3 5.736v-2c-7.97 0-15.06-1.828-21.29-5.464l-1.01 1.728zm22.3 5.736c7.75 0 14.6-1.701 20.5-5.135l-1-1.73c-5.56 3.233-12.05 4.865-19.5 4.865v2zm20.51-5.139c6.05-3.576 10.71-8.799 13.99-15.628l-1.8-.866c-3.12 6.504-7.53 11.415-13.21 14.772l1.02 1.722zM1080.23 99h32.2v-2h-32.2v2zm31.25-1.31c-4.6 14.069-12.67 25.015-24.21 32.884l1.12 1.652c11.93-8.132 20.26-19.451 24.99-33.915l-1.9-.622zm-24.21 32.882c-11.41 7.741-24.88 11.628-40.44 11.628v2c15.91 0 29.78-3.98 41.56-11.972l-1.12-1.656zm-40.44 11.628c-13.18 0-25.07-2.963-35.71-8.874l-.97 1.748c10.96 6.089 23.19 9.126 36.68 9.126v-2zm-35.7-8.867c-10.51-6.044-18.854-14.384-25.034-25.035l-1.73 1.004c6.354 10.949 14.946 19.543 25.764 25.765l1-1.734zm-25.029-25.027c-6.039-10.634-9.07-22.727-9.07-36.306h-2c0 13.888 3.103 26.328 9.331 37.294l1.739-.988zM1231.35 2.4h1v-1h-1v1zm0 22.6v1h1v-1h-1zm-37.2 0v-1h-1v1h1zm0 117v1h1v-1h-1zm-28 0h-1v1h1v-1zm0-117h1v-1h-1v1zm-37.2 0h-1v1h1v-1zm0-22.6v-1h-1v1h1zm101.4 0V25h2V2.4h-2zm1 21.6h-37.2v2h37.2v-2zm-38.2 1v117h2V25h-2zm1 116h-28v2h28v-2zm-27 1V25h-2v117h2zm-1-118h-37.2v2h37.2v-2zm-36.2 1V2.4h-2V25h2zm-1-21.6h102.4v-2h-102.4v2z" fill="#999" fill-opacity=".3"/></svg>